<!--?xml version="1.0" encoding="utf-8"?-->
<!-- Generator: Adobe Illustrator 27.1.0, SVG Export Plug-In . SVG Version: 6.00 Build 0)  -->
<svg version="1.1" id="Capa_1" xmlns="http://www.w3.org/2000/svg" xmlns:xlink="http://www.w3.org/1999/xlink" x="0px" y="0px" viewBox="0 0 1366 768" style="" xml:space="preserve">
<style type="text/css">
	.st0{fill:none;stroke:#000000;stroke-width:5;stroke-miterlimit:10;}
	.st1{fill:none;stroke:#000000;stroke-width:2;stroke-miterlimit:10;}
</style>
<g>
	<path class="st0 FjpwdOxR_0" d="M209.07,371.96V252.44h52.74c23.4,0,38.34,17.1,38.34,38.7c0,21.78-14.94,37.44-38.34,37.44h-27.72v43.38
		H209.07z M257.85,308.24c14.4,0,20.34-7.38,20.34-17.82c0-9.9-5.94-17.28-20.34-17.28h-23.76v35.1H257.85z"></path>
	<path class="st0 FjpwdOxR_1" d="M303.75,313.28c0-40.5,20.7-64.8,57.42-64.8c36.72,0,57.06,24.3,57.06,65.34c0,41.04-20.34,62.28-57.06,62.28
		C324.45,376.1,303.75,353.6,303.75,313.28z M393.56,313.82c0-28.26-11.52-43.2-32.4-43.2c-21.06,0-32.76,14.94-32.76,43.2
		s12.06,40.86,32.76,40.86C379.16,354.68,393.56,342.08,393.56,313.82z"></path>
	<path class="st0 FjpwdOxR_2" d="M495.44,371.96v-30.78c0-11.52-4.32-16.02-18.72-16.02h-26.64v46.8h-24.3V252.44h60.66
		c22.14,0,36.72,14.76,36.72,34.56c0,12.78-6.3,23.58-17.82,27.72c10.62,3.42,14.58,9.36,14.58,23.4v33.84H495.44z M450.08,273.14
		V305h31.32c13.32,0,18.36-6.66,18.36-15.84c0-9.36-5.04-16.02-17.46-16.02H450.08z"></path>
	<path class="st0 FjpwdOxR_3" d="M562.4,371.96v-98.64h-36v-20.88h97.2v20.88h-36.18v98.64H562.4z"></path>
	<path class="st0 FjpwdOxR_4" d="M681.38,371.96l-7.56-24.66h-44.1l-8.46,24.66H594.8l42.66-119.52h28.98l42.12,119.52H681.38z M651.68,279.26
		h-0.18l-15.3,47.52h30.42L651.68,279.26z"></path>
	<path class="st0 FjpwdOxR_5" d="M739.16,321.56v50.4h-25.02V252.44h85.14v20.88h-60.12v27.18h52.56v21.06H739.16z"></path>
	<path class="st0 FjpwdOxR_6" d="M798.02,313.28c0-40.5,20.7-64.8,57.42-64.8c36.72,0,57.06,24.3,57.06,65.34c0,41.04-20.34,62.28-57.06,62.28
		C818.72,376.1,798.02,353.6,798.02,313.28z M887.84,313.82c0-28.26-11.52-43.2-32.4-43.2c-21.06,0-32.76,14.94-32.76,43.2
		s12.06,40.86,32.76,40.86C873.44,354.68,887.84,342.08,887.84,313.82z"></path>
	<path class="st0 FjpwdOxR_7" d="M920.06,371.96V252.44h25.02v97.74h59.22v21.78H920.06z"></path>
	<path class="st0 FjpwdOxR_8" d="M1010.24,371.96V252.44h25.02v119.52H1010.24z"></path>
	<path class="st0 FjpwdOxR_9" d="M1042.46,313.28c0-40.5,20.7-64.8,57.42-64.8c36.72,0,57.06,24.3,57.06,65.34c0,41.04-20.34,62.28-57.06,62.28
		C1063.16,376.1,1042.46,353.6,1042.46,313.28z M1132.27,313.82c0-28.26-11.52-43.2-32.4-43.2c-21.06,0-32.76,14.94-32.76,43.2
		s12.06,40.86,32.76,40.86C1117.88,354.68,1132.27,342.08,1132.27,313.82z"></path>
</g>
<g>
	<path class="st1 FjpwdOxR_10" d="M385.45,481.72l18.24-20.88h5.04l-13.12,21.28c1.39-1.71,2.63-3.19,3.72-4.44c1.09-1.25,2.11-2.29,3.04-3.12
		c0.93-0.83,1.83-1.44,2.68-1.84c0.85-0.4,1.73-0.6,2.64-0.6c0.96,0,1.84,0.25,2.64,0.76c0.8,0.51,1.39,1.25,1.76,2.24
		c0.37,0.99,0.43,2.21,0.16,3.68c-0.27,1.47-0.99,3.16-2.16,5.08l-4.32,7.04c-1.07,1.81-1.44,3.25-1.12,4.32
		c0.32,1.07,0.91,1.6,1.76,1.6c1.23,0,2.64-0.76,4.24-2.28c1.6-1.52,3.79-3.77,6.56-6.76c0.75-0.85,1.45-1.64,2.12-2.36
		c0.67-0.72,1.24-1.37,1.72-1.96c0.59-0.64,1.12-1.25,1.6-1.84h1.52c-2.4,2.77-4.49,5.2-6.28,7.28c-1.79,2.08-3.39,3.79-4.8,5.12
		c-1.41,1.33-2.68,2.33-3.8,3c-1.12,0.67-2.21,1-3.28,1c-0.96,0-1.83-0.31-2.6-0.92c-0.77-0.61-1.32-1.48-1.64-2.6
		c-0.32-1.12-0.32-2.48,0-4.08c0.32-1.6,1.09-3.39,2.32-5.36l3.6-5.84c1.12-1.81,1.52-3.25,1.2-4.32c-0.32-1.07-0.85-1.6-1.6-1.6
		c-1.33,0-2.81,0.83-4.44,2.48c-1.63,1.65-3.56,3.84-5.8,6.56c-1.07,1.28-3.55,4.95-7.44,11c-3.89,6.05-9.12,14.28-15.68,24.68
		h-5.04l34.08-54.4l-16,18.08H385.45z"></path>
	<path class="st1 FjpwdOxR_11" d="M436.16,472.12c1.28,0,2.4,0.28,3.36,0.84c0.96,0.56,1.72,1.32,2.28,2.28c0.56,0.96,0.92,2.09,1.08,3.4
		c0.16,1.31,0.05,2.68-0.32,4.12c0.27,0.21,0.65,0.41,1.16,0.6c0.51,0.19,1.16,0.28,1.96,0.28c0.59,0,1.25-0.19,2-0.56
		c0.75-0.37,1.33-0.85,1.76-1.44h1.6c-1.07,1.33-2.12,2.2-3.16,2.6c-1.04,0.4-2.01,0.6-2.92,0.6c-0.59-0.05-1.11-0.15-1.56-0.28
		c-0.45-0.13-0.87-0.31-1.24-0.52c-0.48,1.44-1.25,3-2.32,4.68c-1.07,1.68-2.29,3.23-3.68,4.64c-1.39,1.41-2.87,2.6-4.44,3.56
		c-1.57,0.96-3.16,1.44-4.76,1.44c-1.76,0-3.28-0.49-4.56-1.48c-1.28-0.99-2.2-2.28-2.76-3.88s-0.69-3.41-0.4-5.44
		c0.29-2.03,1.16-4.08,2.6-6.16c2.03-2.93,4.25-5.21,6.68-6.84C430.95,472.93,433.5,472.12,436.16,472.12z M436.96,473.16
		c-1.71,0-3.41,0.73-5.12,2.2c-1.71,1.47-3.39,3.56-5.04,6.28c-1.17,1.97-1.96,3.87-2.36,5.68c-0.4,1.81-0.49,3.41-0.28,4.8
		c0.21,1.39,0.68,2.49,1.4,3.32c0.72,0.83,1.56,1.24,2.52,1.24c1.33,0,2.68-0.47,4.04-1.4c1.36-0.93,2.64-2.08,3.84-3.44
		c1.2-1.36,2.24-2.83,3.12-4.4s1.51-2.97,1.88-4.2c-0.05-0.05-0.11-0.09-0.16-0.12c-0.05-0.03-0.11-0.07-0.16-0.12
		c-0.75-0.64-1.24-1.35-1.48-2.12c-0.24-0.77-0.32-1.52-0.24-2.24c0.08-0.72,0.31-1.32,0.68-1.8c0.37-0.48,0.77-0.75,1.2-0.8
		c-0.43-0.91-0.99-1.61-1.68-2.12C438.43,473.41,437.71,473.16,436.96,473.16z"></path>
	<path class="st1 FjpwdOxR_12" d="M478.32,481.64c-2.88,2.88-5.2,4.32-6.96,4.32c-0.96,0-1.77-0.21-2.44-0.64c-0.67-0.43-1.17-0.97-1.52-1.64
		c-0.35-0.67-0.55-1.41-0.6-2.24c-0.05-0.83,0.05-1.61,0.32-2.36c-2.56,2.77-5,5.83-7.32,9.16c-2.32,3.33-4.49,6.6-6.52,9.8h-5.04
		l11.44-18.8c1.07-1.81,1.71-3.25,1.92-4.32c0.21-1.07-0.05-1.6-0.8-1.6c-0.85,0-2.05,0.72-3.6,2.16c-1.55,1.44-3.6,3.52-6.16,6.24
		h-1.52c2.88-3.25,5.23-5.67,7.04-7.24c1.81-1.57,3.44-2.36,4.88-2.36c1.55,0,2.53,0.83,2.96,2.48c0.43,1.65-0.08,4.16-1.52,7.52
		c1.33-1.6,2.84-3.31,4.52-5.12c1.68-1.81,3.29-3.33,4.84-4.56H476c-1.76,1.49-3.11,2.99-4.04,4.48c-0.93,1.49-1.52,2.81-1.76,3.96
		c-0.24,1.15-0.19,2.08,0.16,2.8c0.35,0.72,0.92,1.08,1.72,1.08c0.64,0,1.32-0.29,2.04-0.88c0.72-0.59,1.53-1.33,2.44-2.24H478.32z"></path>
	<path class="st1 FjpwdOxR_13" d="M584.64,438.68c0.43-0.11,0.8-0.08,1.12,0.08c0.32,0.16,0.4,0.43,0.24,0.8c-4.37,7.41-8.2,13.92-11.48,19.52
		c-3.28,5.6-6.03,10.43-8.24,14.48c-2.21,4.05-3.91,7.41-5.08,10.08c-1.17,2.67-1.81,4.77-1.92,6.32c-0.05,0.8-0.03,1.61,0.08,2.44
		c0.11,0.83,0.33,1.57,0.68,2.24c0.35,0.67,0.81,1.2,1.4,1.6c0.59,0.4,1.36,0.6,2.32,0.6c1.33,0,2.64-0.43,3.92-1.28
		c1.28-0.85,2.6-2,3.96-3.44c1.36-1.44,2.77-3.09,4.24-4.96c1.47-1.87,3.08-3.84,4.84-5.92l1.04,0.4c-2.19,2.88-4.17,5.37-5.96,7.48
		c-1.79,2.11-3.44,3.84-4.96,5.2c-1.52,1.36-2.93,2.37-4.24,3.04c-1.31,0.67-2.57,1-3.8,1c-0.85,0-1.76-0.16-2.72-0.48
		s-1.83-0.84-2.6-1.56c-0.77-0.72-1.41-1.67-1.92-2.84c-0.51-1.17-0.73-2.64-0.68-4.4c0.05-1.76,0.47-3.81,1.24-6.16
		c0.77-2.35,2.04-5.07,3.8-8.16c0.59-0.96,1.28-2.15,2.08-3.56c0.8-1.41,1.83-3.17,3.08-5.28c1.25-2.11,2.76-4.67,4.52-7.68
		c1.76-3.01,3.87-6.6,6.32-10.76c-3.25,3.41-6.48,7.24-9.68,11.48c-3.2,4.24-6.43,8.56-9.68,12.96c-3.25,4.4-6.52,8.71-9.8,12.92
		c-3.28,4.21-6.63,8.05-10.04,11.52l-1.68,1.68l-1.44-0.08c1.55-1.87,2.81-4.12,3.8-6.76c0.99-2.64,1.88-5.53,2.68-8.68
		c0.8-3.15,1.6-6.47,2.4-9.96c0.8-3.49,1.77-7.01,2.92-10.56c1.15-3.55,2.56-7.05,4.24-10.52s3.83-6.75,6.44-9.84
		c-1.97,1.65-3.91,3.73-5.8,6.24c-1.89,2.51-3.76,5.24-5.6,8.2c-1.84,2.96-3.67,6.08-5.48,9.36c-1.81,3.28-3.68,6.49-5.6,9.64
		c-1.92,3.15-3.89,6.15-5.92,9c-2.03,2.85-4.15,5.36-6.36,7.52c-2.21,2.16-4.53,3.89-6.96,5.2c-2.43,1.31-5,1.96-7.72,1.96
		c-1.65,0-3.2-0.25-4.64-0.76s-2.68-1.24-3.72-2.2s-1.85-2.13-2.44-3.52c-0.59-1.39-0.88-2.96-0.88-4.72c0-1.49,0.29-2.89,0.88-4.2
		c0.59-1.31,1.37-2.44,2.36-3.4c0.99-0.96,2.13-1.72,3.44-2.28c1.31-0.56,2.68-0.84,4.12-0.84c2.93,0,5.09,0.6,6.48,1.8
		c1.39,1.2,2.17,2.52,2.36,3.96c0.19,1.44-0.11,2.76-0.88,3.96c-0.77,1.2-1.85,1.8-3.24,1.8c-0.53,0-1-0.15-1.4-0.44
		c-0.4-0.29-0.6-0.79-0.6-1.48c0-0.59,0.24-1.05,0.72-1.4c0.48-0.35,1.07-0.52,1.76-0.52c0.96,0,1.61-0.35,1.96-1.04
		c0.35-0.69,0.33-1.45-0.04-2.28c-0.37-0.83-1.12-1.59-2.24-2.28c-1.12-0.69-2.67-1.04-4.64-1.04c-1.23,0-2.43,0.24-3.6,0.72
		c-1.17,0.48-2.23,1.15-3.16,2c-0.93,0.85-1.69,1.89-2.28,3.12c-0.59,1.23-0.88,2.59-0.88,4.08c0,1.55,0.31,2.95,0.92,4.2
		c0.61,1.25,1.41,2.32,2.4,3.2c0.99,0.88,2.11,1.56,3.36,2.04c1.25,0.48,2.52,0.72,3.8,0.72c3.63,0,6.97-1.2,10.04-3.6
		c3.07-2.4,5.99-5.49,8.76-9.28c2.77-3.79,5.45-7.97,8.04-12.56c2.59-4.59,5.2-9.09,7.84-13.52c2.64-4.43,5.37-8.48,8.2-12.16
		c2.83-3.68,5.87-6.48,9.12-8.4c0.16-0.05,0.32,0.03,0.48,0.24c0.16,0.21,0.19,0.35,0.08,0.4c-2.35,4.75-4.21,9.47-5.6,14.16
		c-1.39,4.69-2.71,9.28-3.96,13.76c-1.25,4.48-2.63,8.84-4.12,13.08c-1.49,4.24-3.55,8.28-6.16,12.12
		c3.79-4.53,7.6-9.43,11.44-14.68c3.84-5.25,7.65-10.36,11.44-15.32c3.79-4.96,7.56-9.52,11.32-13.68
		C577.24,444.36,580.96,441.08,584.64,438.68z"></path>
	<path class="st1 FjpwdOxR_14" d="M593.92,472.12c2.03,0,3.51,0.51,4.44,1.52c0.93,1.01,1.37,2.24,1.32,3.68l3.28-5.2H608l-11.44,18.8
		c-1.07,1.81-1.44,3.25-1.12,4.32c0.32,1.07,0.91,1.6,1.76,1.6c1.23,0,2.64-0.76,4.24-2.28c1.6-1.52,3.79-3.77,6.56-6.76
		c0.75-0.85,1.45-1.64,2.12-2.36c0.67-0.72,1.24-1.37,1.72-1.96c0.59-0.64,1.12-1.25,1.6-1.84h1.52c-2.4,2.77-4.49,5.2-6.28,7.28
		c-1.79,2.08-3.39,3.79-4.8,5.12c-1.41,1.33-2.68,2.33-3.8,3c-1.12,0.67-2.21,1-3.28,1c-1.44,0-2.6-0.64-3.48-1.92
		s-1.16-2.93-0.84-4.96c-1.39,2.03-2.88,3.73-4.48,5.12c-1.6,1.39-3.41,2.08-5.44,2.08c-1.6,0-2.92-0.49-3.96-1.48
		c-1.04-0.99-1.72-2.28-2.04-3.88c-0.32-1.6-0.25-3.41,0.2-5.44c0.45-2.03,1.4-4.08,2.84-6.16c2.03-2.93,4.25-5.21,6.68-6.84
		C588.71,472.93,591.26,472.12,593.92,472.12z M594.72,473.16c-1.71,0-3.41,0.73-5.12,2.2c-1.71,1.47-3.39,3.56-5.04,6.28
		c-1.17,1.97-2.04,3.88-2.6,5.72s-0.84,3.47-0.84,4.88s0.23,2.55,0.68,3.4c0.45,0.85,1.11,1.28,1.96,1.28c0.91,0,1.87-0.4,2.88-1.2
		c1.01-0.8,2.05-1.87,3.12-3.2c1.07-1.33,2.15-2.85,3.24-4.56c1.09-1.71,2.2-3.44,3.32-5.2c0.91-1.44,1.48-2.75,1.72-3.92
		c0.24-1.17,0.27-2.17,0.08-3c-0.19-0.83-0.59-1.48-1.2-1.96C596.31,473.4,595.58,473.16,594.72,473.16z"></path>
	<path class="st1 FjpwdOxR_15" d="M642.32,481.64c-2.88,2.88-5.2,4.32-6.96,4.32c-0.96,0-1.77-0.21-2.44-0.64c-0.67-0.43-1.17-0.97-1.52-1.64
		c-0.35-0.67-0.55-1.41-0.6-2.24c-0.05-0.83,0.05-1.61,0.32-2.36c-2.56,2.77-5,5.83-7.32,9.16c-2.32,3.33-4.49,6.6-6.52,9.8h-5.04
		l11.44-18.8c1.07-1.81,1.71-3.25,1.92-4.32c0.21-1.07-0.05-1.6-0.8-1.6c-0.85,0-2.05,0.72-3.6,2.16c-1.55,1.44-3.6,3.52-6.16,6.24
		h-1.52c2.88-3.25,5.23-5.67,7.04-7.24c1.81-1.57,3.44-2.36,4.88-2.36c1.55,0,2.53,0.83,2.96,2.48c0.43,1.65-0.08,4.16-1.52,7.52
		c1.33-1.6,2.84-3.31,4.52-5.12c1.68-1.81,3.29-3.33,4.84-4.56H640c-1.76,1.49-3.11,2.99-4.04,4.48c-0.93,1.49-1.52,2.81-1.76,3.96
		c-0.24,1.15-0.19,2.08,0.16,2.8c0.35,0.72,0.92,1.08,1.72,1.08c0.64,0,1.32-0.29,2.04-0.88c0.72-0.59,1.53-1.33,2.44-2.24H642.32z"></path>
	<path class="st1 FjpwdOxR_16" d="M640.24,498.04c-1.12,0-2.05-0.35-2.8-1.04c-0.75-0.69-1.24-1.64-1.48-2.84c-0.24-1.2-0.17-2.57,0.2-4.12
		c0.37-1.55,1.09-3.2,2.16-4.96l8.08-12.96h5.04L640,490.92c-1.07,1.81-1.44,3.25-1.12,4.32c0.32,1.07,0.91,1.6,1.76,1.6
		c1.23,0,2.64-0.76,4.24-2.28c1.6-1.52,3.79-3.77,6.56-6.76c0.75-0.85,1.45-1.64,2.12-2.36c0.67-0.72,1.24-1.37,1.72-1.96
		c0.59-0.64,1.12-1.25,1.6-1.84h1.52c-2.4,2.77-4.49,5.2-6.28,7.28c-1.79,2.08-3.39,3.79-4.8,5.12c-1.41,1.33-2.68,2.33-3.8,3
		C642.4,497.71,641.31,498.04,640.24,498.04z M650.16,463.32c0-0.75,0.27-1.4,0.8-1.96c0.53-0.56,1.2-0.84,2-0.84
		c0.75,0,1.4,0.28,1.96,0.84c0.56,0.56,0.84,1.21,0.84,1.96c0,0.8-0.28,1.47-0.84,2s-1.21,0.8-1.96,0.8c-0.8,0-1.47-0.27-2-0.8
		C650.43,464.79,650.16,464.12,650.16,463.32z"></path>
	<path class="st1 FjpwdOxR_17" d="M670.56,472.12c2.03,0,3.51,0.51,4.44,1.52c0.93,1.01,1.37,2.24,1.32,3.68l3.28-5.2h5.04l-11.44,18.8
		c-1.07,1.81-1.44,3.25-1.12,4.32c0.32,1.07,0.91,1.6,1.76,1.6c1.23,0,2.64-0.76,4.24-2.28c1.6-1.52,3.79-3.77,6.56-6.76
		c0.75-0.85,1.45-1.64,2.12-2.36c0.67-0.72,1.24-1.37,1.72-1.96c0.59-0.64,1.12-1.25,1.6-1.84h1.52c-2.4,2.77-4.49,5.2-6.28,7.28
		c-1.79,2.08-3.39,3.79-4.8,5.12c-1.41,1.33-2.68,2.33-3.8,3c-1.12,0.67-2.21,1-3.28,1c-1.44,0-2.6-0.64-3.48-1.92
		s-1.16-2.93-0.84-4.96c-1.39,2.03-2.88,3.73-4.48,5.12c-1.6,1.39-3.41,2.08-5.44,2.08c-1.6,0-2.92-0.49-3.96-1.48
		c-1.04-0.99-1.72-2.28-2.04-3.88c-0.32-1.6-0.25-3.41,0.2-5.44c0.45-2.03,1.4-4.08,2.84-6.16c2.03-2.93,4.25-5.21,6.68-6.84
		C665.35,472.93,667.89,472.12,670.56,472.12z M671.36,473.16c-1.71,0-3.41,0.73-5.12,2.2c-1.71,1.47-3.39,3.56-5.04,6.28
		c-1.17,1.97-2.04,3.88-2.6,5.72s-0.84,3.47-0.84,4.88s0.23,2.55,0.68,3.4c0.45,0.85,1.11,1.28,1.96,1.28c0.91,0,1.87-0.4,2.88-1.2
		c1.01-0.8,2.05-1.87,3.12-3.2c1.07-1.33,2.15-2.85,3.24-4.56c1.09-1.71,2.2-3.44,3.32-5.2c0.91-1.44,1.48-2.75,1.72-3.92
		c0.24-1.17,0.27-2.17,0.08-3c-0.19-0.83-0.59-1.48-1.2-1.96C672.95,473.4,672.21,473.16,671.36,473.16z"></path>
	<path class="st1 FjpwdOxR_18" d="M690.16,481.72c2.88-3.25,5.23-5.67,7.04-7.24c1.81-1.57,3.44-2.36,4.88-2.36c1.55,0,2.53,0.83,2.96,2.48
		c0.43,1.65-0.08,4.16-1.52,7.52c1.39-1.71,2.63-3.19,3.72-4.44c1.09-1.25,2.11-2.29,3.04-3.12c0.93-0.83,1.83-1.44,2.68-1.84
		c0.85-0.4,1.73-0.6,2.64-0.6c0.96,0,1.84,0.25,2.64,0.76c0.8,0.51,1.39,1.25,1.76,2.24c0.37,0.99,0.43,2.21,0.16,3.68
		c-0.27,1.47-0.99,3.16-2.16,5.08l-4.32,7.04c-1.07,1.81-1.44,3.25-1.12,4.32c0.32,1.07,0.91,1.6,1.76,1.6
		c1.23,0,2.64-0.76,4.24-2.28c1.6-1.52,3.79-3.77,6.56-6.76c0.75-0.85,1.45-1.64,2.12-2.36c0.67-0.72,1.24-1.37,1.72-1.96
		c0.59-0.64,1.12-1.25,1.6-1.84h1.52c-2.4,2.77-4.49,5.2-6.28,7.28c-1.79,2.08-3.39,3.79-4.8,5.12c-1.41,1.33-2.68,2.33-3.8,3
		c-1.12,0.67-2.21,1-3.28,1c-0.96,0-1.83-0.31-2.6-0.92c-0.77-0.61-1.32-1.48-1.64-2.6c-0.32-1.12-0.32-2.48,0-4.08
		c0.32-1.6,1.09-3.39,2.32-5.36l3.6-5.84c1.12-1.81,1.52-3.25,1.2-4.32c-0.32-1.07-0.85-1.6-1.6-1.6c-0.85,0-1.92,0.51-3.2,1.52
		c-1.28,1.01-2.63,2.32-4.04,3.92c-1.41,1.6-2.87,3.37-4.36,5.32c-1.49,1.95-2.88,3.83-4.16,5.64c-1.28,1.81-2.41,3.48-3.4,5
		c-0.99,1.52-1.69,2.63-2.12,3.32h-5.04l11.44-18.8c1.07-1.81,1.71-3.25,1.92-4.32c0.21-1.07-0.05-1.6-0.8-1.6
		c-0.85,0-2.05,0.72-3.6,2.16c-1.55,1.44-3.6,3.52-6.16,6.24H690.16z"></path>
	<path class="st1 FjpwdOxR_19" d="M744.08,472.12c2.03,0,3.51,0.51,4.44,1.52c0.93,1.01,1.37,2.24,1.32,3.68l3.28-5.2h5.04l-11.44,18.8
		c-1.07,1.81-1.44,3.25-1.12,4.32c0.32,1.07,0.91,1.6,1.76,1.6c1.23,0,2.64-0.76,4.24-2.28c1.6-1.52,3.79-3.77,6.56-6.76
		c0.75-0.85,1.45-1.64,2.12-2.36c0.67-0.72,1.24-1.37,1.72-1.96c0.59-0.64,1.12-1.25,1.6-1.84h1.52c-2.4,2.77-4.49,5.2-6.28,7.28
		c-1.79,2.08-3.39,3.79-4.8,5.12c-1.41,1.33-2.68,2.33-3.8,3c-1.12,0.67-2.21,1-3.28,1c-1.44,0-2.6-0.64-3.48-1.92
		c-0.88-1.28-1.16-2.93-0.84-4.96c-1.39,2.03-2.88,3.73-4.48,5.12c-1.6,1.39-3.41,2.08-5.44,2.08c-1.6,0-2.92-0.49-3.96-1.48
		c-1.04-0.99-1.72-2.28-2.04-3.88c-0.32-1.6-0.25-3.41,0.2-5.44c0.45-2.03,1.4-4.08,2.84-6.16c2.03-2.93,4.25-5.21,6.68-6.84
		C738.86,472.93,741.41,472.12,744.08,472.12z M744.88,473.16c-1.71,0-3.41,0.73-5.12,2.2c-1.71,1.47-3.39,3.56-5.04,6.28
		c-1.17,1.97-2.04,3.88-2.6,5.72c-0.56,1.84-0.84,3.47-0.84,4.88s0.23,2.55,0.68,3.4c0.45,0.85,1.11,1.28,1.96,1.28
		c0.91,0,1.87-0.4,2.88-1.2c1.01-0.8,2.05-1.87,3.12-3.2c1.07-1.33,2.15-2.85,3.24-4.56c1.09-1.71,2.2-3.44,3.32-5.2
		c0.91-1.44,1.48-2.75,1.72-3.92c0.24-1.17,0.27-2.17,0.08-3c-0.19-0.83-0.59-1.48-1.2-1.96
		C746.46,473.4,745.73,473.16,744.88,473.16z"></path>
	<path class="st1 FjpwdOxR_20" d="M871.84,438.68c0.43-0.11,0.8-0.08,1.12,0.08c0.32,0.16,0.4,0.43,0.24,0.8c-4.37,7.41-8.2,13.92-11.48,19.52
		c-3.28,5.6-6.03,10.43-8.24,14.48c-2.21,4.05-3.91,7.41-5.08,10.08c-1.17,2.67-1.81,4.77-1.92,6.32c-0.05,0.8-0.03,1.61,0.08,2.44
		c0.11,0.83,0.33,1.57,0.68,2.24c0.35,0.67,0.81,1.2,1.4,1.6c0.59,0.4,1.36,0.6,2.32,0.6c1.33,0,2.64-0.43,3.92-1.28
		c1.28-0.85,2.6-2,3.96-3.44c1.36-1.44,2.77-3.09,4.24-4.96c1.47-1.87,3.08-3.84,4.84-5.92l1.04,0.4c-2.19,2.88-4.17,5.37-5.96,7.48
		c-1.79,2.11-3.44,3.84-4.96,5.2c-1.52,1.36-2.93,2.37-4.24,3.04s-2.57,1-3.8,1c-0.85,0-1.76-0.16-2.72-0.48s-1.83-0.84-2.6-1.56
		c-0.77-0.72-1.41-1.67-1.92-2.84c-0.51-1.17-0.73-2.64-0.68-4.4c0.05-1.76,0.47-3.81,1.24-6.16c0.77-2.35,2.04-5.07,3.8-8.16
		c0.59-0.96,1.28-2.15,2.08-3.56c0.8-1.41,1.83-3.17,3.08-5.28c1.25-2.11,2.76-4.67,4.52-7.68c1.76-3.01,3.87-6.6,6.32-10.76
		c-3.25,3.41-6.48,7.24-9.68,11.48s-6.43,8.56-9.68,12.96c-3.25,4.4-6.52,8.71-9.8,12.92c-3.28,4.21-6.63,8.05-10.04,11.52
		l-1.68,1.68l-1.44-0.08c1.55-1.87,2.81-4.12,3.8-6.76c0.99-2.64,1.88-5.53,2.68-8.68c0.8-3.15,1.6-6.47,2.4-9.96
		c0.8-3.49,1.77-7.01,2.92-10.56c1.15-3.55,2.56-7.05,4.24-10.52c1.68-3.47,3.83-6.75,6.44-9.84c-1.97,1.65-3.91,3.73-5.8,6.24
		c-1.89,2.51-3.76,5.24-5.6,8.2c-1.84,2.96-3.67,6.08-5.48,9.36c-1.81,3.28-3.68,6.49-5.6,9.64c-1.92,3.15-3.89,6.15-5.92,9
		c-2.03,2.85-4.15,5.36-6.36,7.52c-2.21,2.16-4.53,3.89-6.96,5.2c-2.43,1.31-5,1.96-7.72,1.96c-1.65,0-3.2-0.25-4.64-0.76
		c-1.44-0.51-2.68-1.24-3.72-2.2s-1.85-2.13-2.44-3.52c-0.59-1.39-0.88-2.96-0.88-4.72c0-1.49,0.29-2.89,0.88-4.2
		c0.59-1.31,1.37-2.44,2.36-3.4c0.99-0.96,2.13-1.72,3.44-2.28c1.31-0.56,2.68-0.84,4.12-0.84c2.93,0,5.09,0.6,6.48,1.8
		c1.39,1.2,2.17,2.52,2.36,3.96c0.19,1.44-0.11,2.76-0.88,3.96c-0.77,1.2-1.85,1.8-3.24,1.8c-0.53,0-1-0.15-1.4-0.44
		c-0.4-0.29-0.6-0.79-0.6-1.48c0-0.59,0.24-1.05,0.72-1.4c0.48-0.35,1.07-0.52,1.76-0.52c0.96,0,1.61-0.35,1.96-1.04
		c0.35-0.69,0.33-1.45-0.04-2.28c-0.37-0.83-1.12-1.59-2.24-2.28c-1.12-0.69-2.67-1.04-4.64-1.04c-1.23,0-2.43,0.24-3.6,0.72
		c-1.17,0.48-2.23,1.15-3.16,2c-0.93,0.85-1.69,1.89-2.28,3.12c-0.59,1.23-0.88,2.59-0.88,4.08c0,1.55,0.31,2.95,0.92,4.2
		c0.61,1.25,1.41,2.32,2.4,3.2c0.99,0.88,2.11,1.56,3.36,2.04c1.25,0.48,2.52,0.72,3.8,0.72c3.63,0,6.97-1.2,10.04-3.6
		c3.07-2.4,5.99-5.49,8.76-9.28c2.77-3.79,5.45-7.97,8.04-12.56c2.59-4.59,5.2-9.09,7.84-13.52c2.64-4.43,5.37-8.48,8.2-12.16
		c2.83-3.68,5.87-6.48,9.12-8.4c0.16-0.05,0.32,0.03,0.48,0.24c0.16,0.21,0.19,0.35,0.08,0.4c-2.35,4.75-4.21,9.47-5.6,14.16
		c-1.39,4.69-2.71,9.28-3.96,13.76c-1.25,4.48-2.63,8.84-4.12,13.08c-1.49,4.24-3.55,8.28-6.16,12.12
		c3.79-4.53,7.6-9.43,11.44-14.68c3.84-5.25,7.65-10.36,11.44-15.32c3.79-4.96,7.56-9.52,11.32-13.68
		C864.44,444.36,868.16,441.08,871.84,438.68z"></path>
	<path class="st1 FjpwdOxR_21" d="M881.12,472.12c1.28,0,2.4,0.28,3.36,0.84c0.96,0.56,1.72,1.32,2.28,2.28c0.56,0.96,0.92,2.09,1.08,3.4
		c0.16,1.31,0.05,2.68-0.32,4.12c0.27,0.21,0.65,0.41,1.16,0.6c0.51,0.19,1.16,0.28,1.96,0.28c0.59,0,1.25-0.19,2-0.56
		c0.75-0.37,1.33-0.85,1.76-1.44h1.6c-1.07,1.33-2.12,2.2-3.16,2.6c-1.04,0.4-2.01,0.6-2.92,0.6c-0.59-0.05-1.11-0.15-1.56-0.28
		c-0.45-0.13-0.87-0.31-1.24-0.52c-0.48,1.44-1.25,3-2.32,4.68c-1.07,1.68-2.29,3.23-3.68,4.64c-1.39,1.41-2.87,2.6-4.44,3.56
		s-3.16,1.44-4.76,1.44c-1.76,0-3.28-0.49-4.56-1.48c-1.28-0.99-2.2-2.28-2.76-3.88c-0.56-1.6-0.69-3.41-0.4-5.44
		c0.29-2.03,1.16-4.08,2.6-6.16c2.03-2.93,4.25-5.21,6.68-6.84C875.9,472.93,878.45,472.12,881.12,472.12z M881.92,473.16
		c-1.71,0-3.41,0.73-5.12,2.2c-1.71,1.47-3.39,3.56-5.04,6.28c-1.17,1.97-1.96,3.87-2.36,5.68c-0.4,1.81-0.49,3.41-0.28,4.8
		c0.21,1.39,0.68,2.49,1.4,3.32c0.72,0.83,1.56,1.24,2.52,1.24c1.33,0,2.68-0.47,4.04-1.4c1.36-0.93,2.64-2.08,3.84-3.44
		c1.2-1.36,2.24-2.83,3.12-4.4s1.51-2.97,1.88-4.2c-0.05-0.05-0.11-0.09-0.16-0.12c-0.05-0.03-0.11-0.07-0.16-0.12
		c-0.75-0.64-1.24-1.35-1.48-2.12c-0.24-0.77-0.32-1.52-0.24-2.24c0.08-0.72,0.31-1.32,0.68-1.8c0.37-0.48,0.77-0.75,1.2-0.8
		c-0.43-0.91-0.99-1.61-1.68-2.12C883.38,473.41,882.66,473.16,881.92,473.16z"></path>
	<path class="st1 FjpwdOxR_22" d="M894.48,481.72c2.88-3.25,5.23-5.67,7.04-7.24c1.81-1.57,3.44-2.36,4.88-2.36c1.55,0,2.53,0.83,2.96,2.48
		c0.43,1.65-0.08,4.16-1.52,7.52c1.39-1.71,2.63-3.19,3.72-4.44c1.09-1.25,2.11-2.29,3.04-3.12c0.93-0.83,1.83-1.44,2.68-1.84
		c0.85-0.4,1.73-0.6,2.64-0.6c0.96,0,1.84,0.25,2.64,0.76c0.8,0.51,1.39,1.25,1.76,2.24c0.37,0.99,0.43,2.21,0.16,3.68
		c-0.27,1.47-0.99,3.16-2.16,5.08l-4.32,7.04c-1.07,1.81-1.44,3.25-1.12,4.32c0.32,1.07,0.91,1.6,1.76,1.6
		c1.23,0,2.64-0.76,4.24-2.28c1.6-1.52,3.79-3.77,6.56-6.76c0.75-0.85,1.45-1.64,2.12-2.36c0.67-0.72,1.24-1.37,1.72-1.96
		c0.59-0.64,1.12-1.25,1.6-1.84h1.52c-2.4,2.77-4.49,5.2-6.28,7.28c-1.79,2.08-3.39,3.79-4.8,5.12c-1.41,1.33-2.68,2.33-3.8,3
		c-1.12,0.67-2.21,1-3.28,1c-0.96,0-1.83-0.31-2.6-0.92c-0.77-0.61-1.32-1.48-1.64-2.6c-0.32-1.12-0.32-2.48,0-4.08
		c0.32-1.6,1.09-3.39,2.32-5.36l3.6-5.84c1.12-1.81,1.52-3.25,1.2-4.32c-0.32-1.07-0.85-1.6-1.6-1.6c-0.85,0-1.92,0.51-3.2,1.52
		c-1.28,1.01-2.63,2.32-4.04,3.92c-1.41,1.6-2.87,3.37-4.36,5.32c-1.49,1.95-2.88,3.83-4.16,5.64c-1.28,1.81-2.41,3.48-3.4,5
		c-0.99,1.52-1.69,2.63-2.12,3.32h-5.04l11.44-18.8c1.07-1.81,1.71-3.25,1.92-4.32c0.21-1.07-0.05-1.6-0.8-1.6
		c-0.85,0-2.05,0.72-3.6,2.16c-1.55,1.44-3.6,3.52-6.16,6.24H894.48z"></path>
	<path class="st1 FjpwdOxR_23" d="M934.48,498.04c-1.12,0-2.05-0.35-2.8-1.04c-0.75-0.69-1.24-1.64-1.48-2.84s-0.17-2.57,0.2-4.12
		c0.37-1.55,1.09-3.2,2.16-4.96l9.04-14.56H938l0.64-1.04H940c1.6-0.05,2.77-0.75,3.52-2.08l5.12-8.24c1.65,0,3.55-0.37,5.68-1.12
		l-6.96,11.44h5.36l-0.64,1.04h-5.36l-12.48,20.4c-1.07,1.81-1.44,3.25-1.12,4.32c0.32,1.07,0.91,1.6,1.76,1.6
		c1.23,0,2.64-0.76,4.24-2.28c1.6-1.52,3.79-3.77,6.56-6.76c0.75-0.85,1.45-1.64,2.12-2.36c0.67-0.72,1.24-1.37,1.72-1.96
		c0.59-0.64,1.12-1.25,1.6-1.84h1.52c-2.4,2.77-4.49,5.2-6.28,7.28c-1.79,2.08-3.39,3.79-4.8,5.12c-1.41,1.33-2.68,2.33-3.8,3
		C936.64,497.71,935.54,498.04,934.48,498.04z"></path>
	<path class="st1 FjpwdOxR_24" d="M968.56,477.8c-0.37,0.85-1.05,1.68-2.04,2.48c-0.99,0.8-2.16,1.55-3.52,2.24c-1.36,0.69-2.84,1.33-4.44,1.92
		c-1.6,0.59-3.2,1.12-4.8,1.6c-0.43,1.44-0.63,2.79-0.6,4.04c0.03,1.25,0.24,2.35,0.64,3.28c0.4,0.93,0.96,1.67,1.68,2.2
		c0.72,0.53,1.56,0.8,2.52,0.8c1.01,0,2.13-0.21,3.36-0.64c1.23-0.43,2.64-1.2,4.24-2.32c1.6-1.12,3.44-2.65,5.52-4.6
		c2.08-1.95,4.48-4.44,7.2-7.48h1.44c-2.67,3.2-5.12,5.87-7.36,8c-2.24,2.13-4.31,3.84-6.2,5.12c-1.89,1.28-3.61,2.2-5.16,2.76
		c-1.55,0.56-2.96,0.84-4.24,0.84c-1.97,0-3.65-0.49-5.04-1.48c-1.39-0.99-2.39-2.28-3-3.88c-0.61-1.6-0.77-3.41-0.48-5.44
		c0.29-2.03,1.16-4.08,2.6-6.16c2.03-2.93,4.23-5.21,6.6-6.84c2.37-1.63,4.71-2.44,7-2.44c0.75,0,1.45,0.12,2.12,0.36
		c0.67,0.24,1.23,0.61,1.68,1.12s0.72,1.13,0.8,1.88C969.16,475.91,968.98,476.79,968.56,477.8z M954.08,484.84
		c3.47-1.07,6.24-2.35,8.32-3.84c2.08-1.49,3.36-3.09,3.84-4.8c0.32-1.12,0.29-1.96-0.08-2.52c-0.37-0.56-0.85-0.84-1.44-0.84
		c-0.96,0-1.99,0.45-3.08,1.36c-1.09,0.91-2.13,2-3.12,3.28c-0.99,1.28-1.88,2.6-2.68,3.96
		C955.04,482.8,954.45,483.93,954.08,484.84z"></path>
	<path class="st1 FjpwdOxR_25" d="M987.99,471.4c0.59-0.53,1.17-0.91,1.76-1.12c0.59-0.21,1.12-0.32,1.6-0.32c0.91,0,1.44,0.29,1.6,0.88
		c0.11,0.27,0.01,0.55-0.28,0.84c-0.29,0.29-0.76,0.44-1.4,0.44c-0.21,0-0.43,0-0.64,0c-0.21,0-0.45-0.05-0.72-0.16
		c-0.59-0.16-1.04,0.16-1.36,0.96c-0.32,0.8-0.53,1.83-0.64,3.08c-0.11,1.25-0.16,2.57-0.16,3.96c0,1.39,0.03,2.61,0.08,3.68
		c0.16,2.77-0.51,5.41-2,7.92c1.33-1.17,2.81-2.56,4.44-4.16c1.63-1.6,3.43-3.52,5.4-5.76h1.44c-3.31,3.95-6.27,7.08-8.88,9.4
		c-2.61,2.32-4.99,4.07-7.12,5.24c-1.01,0.64-2.13,1.15-3.36,1.52c-1.23,0.37-2.53,0.56-3.92,0.56c-2.45,0-4.24-0.57-5.36-1.72
		c-1.12-1.15-1.73-2.41-1.84-3.8c-0.11-1.39,0.21-2.65,0.96-3.8c0.75-1.15,1.73-1.72,2.96-1.72c0.69,0,1.27,0.24,1.72,0.72
		c0.45,0.48,0.65,1.07,0.6,1.76c-0.05,0.75-0.33,1.35-0.84,1.8c-0.51,0.45-1.05,0.68-1.64,0.68c-0.48,0-0.91-0.12-1.28-0.36
		s-0.69-0.55-0.96-0.92c-0.32,0.75-0.43,1.49-0.32,2.24c0.11,0.75,0.39,1.43,0.84,2.04c0.45,0.61,1.05,1.11,1.8,1.48
		c0.75,0.37,1.6,0.56,2.56,0.56c1.28,0,2.52-0.4,3.72-1.2c1.2-0.8,2.29-1.84,3.28-3.12c0.99-1.28,1.83-2.75,2.52-4.4
		c0.69-1.65,1.15-3.33,1.36-5.04c0.27-2.19,0.75-4.13,1.44-5.84c0.69-1.71,1.39-3.01,2.08-3.92c-1.44,1.23-2.91,2.59-4.4,4.08
		c-1.49,1.49-2.75,2.77-3.76,3.84h-1.52c0.64-0.75,1.37-1.57,2.2-2.48c0.83-0.91,1.71-1.81,2.64-2.72c0.93-0.91,1.87-1.81,2.8-2.72
		C986.33,472.89,987.2,472.09,987.99,471.4z"></path>
</g>
<style data-made-with="vivus-instant">.FjpwdOxR_0{stroke-dasharray:534 536;stroke-dashoffset:535;animation:FjpwdOxR_draw 169ms linear 0ms forwards;}.FjpwdOxR_1{stroke-dasharray:632 634;stroke-dashoffset:633;animation:FjpwdOxR_draw 200ms linear 169ms forwards;}.FjpwdOxR_2{stroke-dasharray:669 671;stroke-dashoffset:670;animation:FjpwdOxR_draw 211ms linear 369ms forwards;}.FjpwdOxR_3{stroke-dasharray:434 436;stroke-dashoffset:435;animation:FjpwdOxR_draw 137ms linear 581ms forwards;}.FjpwdOxR_4{stroke-dasharray:563 565;stroke-dashoffset:564;animation:FjpwdOxR_draw 178ms linear 718ms forwards;}.FjpwdOxR_5{stroke-dasharray:515 517;stroke-dashoffset:516;animation:FjpwdOxR_draw 163ms linear 897ms forwards;}.FjpwdOxR_6{stroke-dasharray:632 634;stroke-dashoffset:633;animation:FjpwdOxR_draw 200ms linear 1060ms forwards;}.FjpwdOxR_7{stroke-dasharray:408 410;stroke-dashoffset:409;animation:FjpwdOxR_draw 129ms linear 1260ms forwards;}.FjpwdOxR_8{stroke-dasharray:290 292;stroke-dashoffset:291;animation:FjpwdOxR_draw 92ms linear 1389ms forwards;}.FjpwdOxR_9{stroke-dasharray:632 634;stroke-dashoffset:633;animation:FjpwdOxR_draw 200ms linear 1481ms forwards;}.FjpwdOxR_10{stroke-dasharray:335 337;stroke-dashoffset:336;animation:FjpwdOxR_draw 106ms linear 1681ms forwards;}.FjpwdOxR_11{stroke-dasharray:161 163;stroke-dashoffset:162;animation:FjpwdOxR_draw 51ms linear 1788ms forwards;}.FjpwdOxR_12{stroke-dasharray:158 160;stroke-dashoffset:159;animation:FjpwdOxR_draw 50ms linear 1839ms forwards;}.FjpwdOxR_13{stroke-dasharray:702 704;stroke-dashoffset:703;animation:FjpwdOxR_draw 222ms linear 1889ms forwards;}.FjpwdOxR_14{stroke-dasharray:222 224;stroke-dashoffset:223;animation:FjpwdOxR_draw 70ms linear 2111ms forwards;}.FjpwdOxR_15{stroke-dasharray:158 160;stroke-dashoffset:159;animation:FjpwdOxR_draw 50ms linear 2182ms forwards;}.FjpwdOxR_16{stroke-dasharray:133 135;stroke-dashoffset:134;animation:FjpwdOxR_draw 42ms linear 2232ms forwards;}.FjpwdOxR_17{stroke-dasharray:222 224;stroke-dashoffset:223;animation:FjpwdOxR_draw 70ms linear 2274ms forwards;}.FjpwdOxR_18{stroke-dasharray:235 237;stroke-dashoffset:236;animation:FjpwdOxR_draw 74ms linear 2345ms forwards;}.FjpwdOxR_19{stroke-dasharray:222 224;stroke-dashoffset:223;animation:FjpwdOxR_draw 70ms linear 2420ms forwards;}.FjpwdOxR_20{stroke-dasharray:702 704;stroke-dashoffset:703;animation:FjpwdOxR_draw 222ms linear 2490ms forwards;}.FjpwdOxR_21{stroke-dasharray:161 163;stroke-dashoffset:162;animation:FjpwdOxR_draw 51ms linear 2712ms forwards;}.FjpwdOxR_22{stroke-dasharray:235 237;stroke-dashoffset:236;animation:FjpwdOxR_draw 74ms linear 2764ms forwards;}.FjpwdOxR_23{stroke-dasharray:165 167;stroke-dashoffset:166;animation:FjpwdOxR_draw 52ms linear 2838ms forwards;}.FjpwdOxR_24{stroke-dasharray:172 174;stroke-dashoffset:173;animation:FjpwdOxR_draw 54ms linear 2891ms forwards;}.FjpwdOxR_25{stroke-dasharray:170 172;stroke-dashoffset:171;animation:FjpwdOxR_draw 54ms linear 2945ms forwards;}@keyframes FjpwdOxR_draw{100%{stroke-dashoffset:0;}}@keyframes FjpwdOxR_fade{0%{stroke-opacity:1;}94.44444444444444%{stroke-opacity:1;}100%{stroke-opacity:0;}}</style></svg>
